{"title":"My.Little.Pony.Friendship.is.Magic.S01E01.Friendship.is.Magic.Pa","uid":11948650,"size":490260491,"categoryP":"video","categoryS":"hd___tv_shows","magnet":"?xt=urn:btih:9b28f90f2fe95c6b512b57020773614e673dc38f&amp;dn=My.Little.Pony.Friendship.is.Magic.S01E01.Friendship.is.Magic.Pa&amp;tr=udp%3A%2F%2Ftracker.openbittorrent.com%3A80&amp;tr=udp%3A%2F%2Fopen.demonii.com%3A1337&amp;tr=udp%3A%2F%2Ftracker.coppersurfer.tk%3A6969&amp;tr=udp%3A%2F%2Fexodus.desync.com%3A6969","seeders":0,"leechers":1,"uploader":"orangebirds","files":1,"time":1432128218,"description":"My.Little.Pony.Friendship.is.Magic.S01E01.Friendship.is.Magic.Part.1.1080p.WEB-DL.x264-orangebirds\n\nSource : iTunes (AU) (thanks to YayPonies)\n\nVideo encoded using x264 with setting CRF 18 preset very slow\nAudio in AC3 5.1\nSubtitle available (also thanks to YayPonies)\n\nPlease help me seed!\n\nGeneral\nUnique ID                                : 219117802754843536954453141155299182902 (0xA4D88DC3B318F8CAAE6E1D45BF5FC936)\nComplete name                            : My.Little.Pony.Friendship.is.Magic.S01E01.Friendship.is.Magic.Part.1.1080p.WEB-DL.x264-orangebirds.mkv\nFormat                                   : Matroska\nFormat version                           : Version 4 / Version 2\nFile size                                : 468 MiB\nDuration                                 : 22mn 5s\nOverall bit rate                         : 2 959 Kbps\nEncoded date                             : UTC 2015-05-20 10:48:50\nWriting application                      : mkvmerge v7.9.0 ('Birds') 64bit\nWriting library                          : libebml v1.3.1 + libmatroska v1.4.2\nDURATION                                 : 00:21:16.387000000\nNUMBER_OF_FRAMES                         : 322\nNUMBER_OF_BYTES                          : 13875\n_STATISTICS_WRITING_APP                  : mkvmerge v7.9.0 ('Birds') 64bit\n_STATISTICS_WRITING_DATE_UTC             : 2015-05-20 10:48:50\n_STATISTICS_TAGS                         : BPS DURATION NUMBER_OF_FRAMES NUMBER_OF_BYTES\n\nVideo\nID                                       : 1\nFormat                                   : AVC\nFormat/Info                              : Advanced Video Codec\nFormat profile                           : &lt;a class=&quot;__cf_email__&quot; href=&quot;/cdn-cgi/l/email-protection&quot; data-cfemail=&quot;0d45646a654d4139233c&quot;&gt;[email&amp;#160;protected]&lt;/a&gt;&lt;script data-cfhash='f9e31' type=&quot;text/javascript&quot;&gt;\n/* &lt;![CDATA[ */!function(){try{var t=&quot;currentScript&quot;in document?document.currentScript:function(){for(var t=document.getElementsByTagName(&quot;script&quot;),e=t.length;e--;)if(t[e].getAttribute(&quot;data-cfhash&quot;))return t[e]}();if(t&amp;&amp;t.previousSibling){var e,r,n,i,c=t.previousSibling,a=c.getAttribute(&quot;data-cfemail&quot;);if(a){for(e=&quot;&quot;,r=parseInt(a.substr(0,2),16),n=2;a.length-n;n+=2)i=parseInt(a.substr(n,2),16)^r,e+=String.fromCharCode(i);e=document.createTextNode(e),c.parentNode.replaceChild(e,c)}t.parentNode.removeChild(t);}}catch(u){}}()/* ]]&gt; */&lt;/script&gt;\nFormat settings, CABAC                   : Yes\nFormat settings, ReFrames                : 4 frames\nCodec ID                                 : V_MPEG4/ISO/AVC\nDuration                                 : 22mn 5s\nBit rate                                 : 2 516 Kbps\nWidth                                    : 1 920 pixels\nHeight                                   : 1 080 pixels\nDisplay aspect ratio                     : 16:9\nFrame rate mode                          : Constant\nFrame rate                               : 23.976 fps\nColor space                              : YUV\nChroma subsampling                       : 4:2:0\nBit depth                                : 8 bits\nScan type                                : Progressive\nBits/(Pixel*Frame)                       : 0.051\nStream size                              : 398 MiB (85%)\nWriting library                          : x264 core 144 r2525 40bb568\nEncoding settings                        : cabac=1 / ref=4 / deblock=1:0:0 / analyse=0x3:0x133 / me=umh / subme=10 / psy=1 / psy_rd=1.00:0.00 / mixed_ref=1 / me_range=24 / chroma_me=1 / trellis=2 / 8x8dct=1 / cqm=0 / deadzone=21,11 / fast_pskip=1 / chroma_qp_offset=-2 / threads=6 / lookahead_threads=1 / sliced_threads=0 / nr=0 / decimate=1 / interlaced=0 / bluray_compat=0 / constrained_intra=0 / bframes=8 / b_pyramid=2 / b_adapt=2 / b_bias=0 / direct=3 / weightb=1 / open_gop=0 / weightp=2 / keyint=240 / keyint_min=23 / scenecut=40 / intra_refresh=0 / rc_lookahead=60 / rc=crf / mbtree=1 / crf=18.0 / qcomp=0.60 / qpmin=0 / qpmax=69 / qpstep=4 / vbv_maxrate=62500 / vbv_bufsize=78125 / crf_max=0.0 / nal_hrd=none / filler=0 / ip_ratio=1.40 / aq=1:1.00\nDefault                                  : Yes\nForced                                   : No\n\nAudio\nID                                       : 2\nFormat                                   : AC-3\nFormat/Info                              : Audio Coding 3\nMode extension                           : CM (complete main)\nFormat settings, Endianness              : Big\nCodec ID                                 : A_AC3\nDuration                                 : 22mn 5s\nBit rate mode                            : Constant\nBit rate                                 : 384 Kbps\nChannel(s)                               : 6 channels\nChannel positions                        : Front: L C R, Side: L R, LFE\nSampling rate                            : 48.0 KHz\nBit depth                                : 16 bits\nCompression mode                         : Lossy\nStream size                              : 60.7 MiB (13%)\nTitle                                    : AC3 5.1\nLanguage                                 : English\nDefault                                  : Yes\nForced                                   : No\n\nText\nID                                       : 3\nFormat                                   : UTF-8\nCodec ID                                 : S_TEXT/UTF8\nCodec ID/Info                            : UTF-8 Plain Text\nTitle                                    : Subtitles\nLanguage                                 : English\nDefault                                  : Yes\nForced                                   : No","torrent":{"xt":"urn:btih:9b28f90f2fe95c6b512b57020773614e673dc38f","amp;dn":"My.Little.Pony.Friendship.is.Magic.S01E01.Friendship.is.Magic.Pa","amp;tr":["udp%3A%2F%2Ftracker.openbittorrent.com%3A80","udp%3A%2F%2Fopen.demonii.com%3A1337","udp%3A%2F%2Ftracker.coppersurfer.tk%3A6969","udp%3A%2F%2Fexodus.desync.com%3A6969"],"infoHash":"9b28f90f2fe95c6b512b57020773614e673dc38f","infoHashBuffer":{"type":"Buffer","data":[155,40,249,15,47,233,92,107,81,43,87,2,7,115,97,78,103,61,195,143]},"announce":[],"urlList":[]}}